<?xml version="1.0" encoding="UTF-8"?>
<svg width="24" height="24" viewBox="0 0 24 24" fill="none" xmlns="http://www.w3.org/2000/svg">
<path fill-rule="evenodd" clip-rule="evenodd" d="M12.5548 2.25C12.969 2.25 13.3048 2.58579 13.3048 3V4.3719C13.3048 4.78612 12.969 5.1219 12.5548 5.1219C12.1406 5.1219 11.8048 4.78612 11.8048 4.3719V3C11.8048 2.58579 12.1406 2.25 12.5548 2.25ZM19.4489 5.10549C19.7418 5.39839 19.7418 5.87326 19.4489 6.16616L18.4788 7.13622C18.1859 7.42911 17.711 7.42911 17.4181 7.13622C17.1253 6.84332 17.1253 6.36845 17.4181 6.07556L18.3882 5.10549C18.6811 4.8126 19.156 4.8126 19.4489 5.10549ZM5.66066 5.10597C5.95355 4.81308 6.42842 4.81308 6.72132 5.10597L7.69138 6.07603C7.98427 6.36893 7.98427 6.8438 7.69138 7.13669C7.39849 7.42959 6.92361 7.42959 6.63072 7.13669L5.66066 6.16663C5.36776 5.87374 5.36776 5.39886 5.66066 5.10597ZM2.80469 12.0001C2.80469 11.5859 3.14047 11.2501 3.55469 11.2501H4.92659C5.3408 11.2501 5.67659 11.5859 5.67659 12.0001C5.67659 12.4143 5.3408 12.7501 4.92659 12.7501H3.55469C3.14047 12.7501 2.80469 12.4143 2.80469 12.0001ZM19.4328 12.0001C19.4328 11.5859 19.7686 11.2501 20.1828 11.2501H21.5547C21.9689 11.2501 22.3047 11.5859 22.3047 12.0001C22.3047 12.4143 21.9689 12.7501 21.5547 12.7501H20.1828C19.7686 12.7501 19.4328 12.4143 19.4328 12.0001ZM7.69138 16.8635C7.98427 17.1564 7.98427 17.6312 7.69138 17.9241L6.72132 18.8942C6.42842 19.1871 5.95355 19.1871 5.66066 18.8942C5.36776 18.6013 5.36776 18.1264 5.66066 17.8335L6.63072 16.8635C6.92361 16.5706 7.39849 16.5706 7.69138 16.8635ZM17.4181 16.8635C17.711 16.5706 18.1859 16.5706 18.4788 16.8635L19.4489 17.8335C19.7418 18.1264 19.7418 18.6013 19.4489 18.8942C19.156 19.1871 18.6811 19.1871 18.3882 18.8942L17.4181 17.9241C17.1253 17.6312 17.1253 17.1564 17.4181 16.8635ZM12.5548 18.8781C12.969 18.8781 13.3048 19.2139 13.3048 19.6281V21C13.3048 21.4142 12.969 21.75 12.5548 21.75C12.1406 21.75 11.8048 21.4142 11.8048 21V19.6281C11.8048 19.2139 12.1406 18.8781 12.5548 18.8781Z" fill="#000000"></path>
<path fill-rule="evenodd" clip-rule="evenodd" d="M12.5549 8.55469C10.6516 8.55469 9.10938 10.0976 9.10938 12.0002C9.10938 13.9038 10.6517 15.4466 12.5549 15.4466C14.4581 15.4466 16.0004 13.9038 16.0004 12.0002C16.0004 10.0976 14.4582 8.55469 12.5549 8.55469ZM7.60938 12.0002C7.60938 9.26941 9.8229 7.05469 12.5549 7.05469C15.2868 7.05469 17.5004 9.26941 17.5004 12.0002C17.5004 14.7318 15.287 16.9466 12.5549 16.9466C9.82279 16.9466 7.60938 14.7318 7.60938 12.0002Z" fill="#000000"></path>
</svg>